<?xml version="1.0" encoding="UTF-8"?><svg xmlns="http://www.w3.org/2000/svg" viewBox="0 0 1682.1 1080"><defs><style>.e,.f{fill:#fff;}.g{fill:#ed3124;}.f{font-family:Arial-BoldMT, Arial;font-size:91.85px;}.h{fill:#ed3527;}.i{fill:#ed3326;}.j{fill:#ee3829;}.k{fill:#ed3225;}.l{fill:#ed3426;}.m{letter-spacing:-.04em;}.n{fill:#015daa;}.o{letter-spacing:-.07em;}</style></defs><g id="a"/><g id="b"><g><rect class="e" x="78.5" y="246.5" width="1528" height="550"/><path d="M1606,247V796H79V247H1606m1-1H78V797H1607V246h0Z"/></g><g><rect class="e" x="82.5" y="913.5" width="1527" height="81"/><path d="M1609,914v80H83v-80H1609m1-1H82v82H1610v-82h0Z"/></g></g><g id="c"><g><path class="n" d="M846.12,842.11c-249.47,0-498.94,0-748.41,0-29.99,0-53.67-19.31-59.52-48.71-.75-3.76-.99-7.69-.99-11.54-.05-167.04-.04-334.08-.04-501.12,0-34.23,25.61-60.19,59.84-60.68,.73-.01,1.45,0,2.18,0,498.09,0,996.19,0,1494.28,0,24.51,0,43.03,10.44,55.01,31.9,4.73,8.48,6.77,17.78,6.77,27.52-.01,167.77,0,335.53-.01,503.3,0,32.43-25.74,58.67-58.15,59.32-1.09,.02-2.18,0-3.27,0-249.23,0-498.46,0-747.68,0Zm-703.64-51.16c1.23,.12,2.05,.27,2.87,.27,63.31,.01,126.61,.03,189.92,0,9,0,16.29-3.76,21.09-11.34,2.75-4.34,4.91-9.15,6.76-13.97,34.17-88.93,68.17-177.93,102.4-266.84,7.67-19.93,15.38-39.9,24.3-59.29,8.65-18.82,22.11-33.71,41.69-42.09,12.33-5.28,25.3-7.08,38.61-7.08,198.87,.01,397.75,0,596.62,0,.48,0,.97,0,1.45,0,16.93-.34,29.87,6.68,38.79,21.07,1.91,3.08,3.86,6.14,5.63,9.31,36.88,65.89,73.74,131.79,110.55,197.72,1.22,2.19,2.14,4.63,2.71,7.07,2.35,10.03-2.62,17.58-12.72,19.37-2.6,.46-5.29,.51-7.95,.51-38.01,.03-76.01,.03-114.02-.01-2.11,0-3.45,.23-4.35,2.59-16.34,42.74-32.81,85.44-49.16,128.18-.93,2.44-1.37,5.12-1.68,7.74-.38,3.24,1.36,5.44,4.46,6.08,2.93,.61,5.98,.96,8.97,.96,142.83,.04,285.66,.05,428.49-.03,4.42,0,8.97-.59,13.23-1.75,7.75-2.11,11.01-7.61,9.25-15.51-1.01-4.56-2.44-9.16-4.52-13.32-12.5-24.94-25.23-49.77-37.92-74.62-22.86-44.74-45.73-89.48-68.63-134.2-34.95-68.27-69.88-136.55-104.9-204.79-7.55-14.72-15.12-29.45-23.25-43.85-9.34-16.55-23.71-26.65-42.51-29.67-9.04-1.46-18.27-2.42-27.41-2.43-385.04-.12-770.07-.1-1155.11-.1-.73,0-1.56-.23-2.15,.05-1.03,.49-2.37,1.1-2.76,2.01-1.89,4.44-3.49,9-5.21,13.52-11.02,28.88-22.05,57.75-33.08,86.63-3.21,8.4,.56,15.31,9.39,17.11,1.52,.31,3.12,.35,4.68,.35,42.49,.02,84.97,.01,127.46,.02,2.42,0,4.84,.05,7.26,.15,14.09,.61,25.11,8.46,29.37,21.9,1.84,5.79,2.77,12.03,3.04,18.12,.61,13.69-3.92,26.37-8.75,38.96-39.71,103.61-79.36,207.26-119.02,310.89-1.28,3.35-2.53,6.72-3.88,10.33ZM807.64,417.77c-.57-.08-.81-.14-1.05-.14-73.84,0-147.67,0-221.51-.07-2.1,0-2.97,.77-3.64,2.58-6.25,16.73-12.84,33.35-18.75,50.2-4.03,11.49-2.7,22.68,4.65,32.75,5.94,8.14,14.09,13.51,23.06,17.7,19.26,8.99,38.61,17.79,57.83,26.86,50.89,24.03,101.67,48.27,152.62,72.16,10.86,5.09,10.49,15.09,5.2,22.13-4.95,6.6-11.83,8.72-19.74,8.71-114.39-.02-228.77,0-343.16-.09-3.1,0-4.58,.73-5.73,3.79-15.15,40.22-30.48,80.37-45.71,120.56-.98,2.59-1.89,5.27-2.29,7.99-.71,4.88,1.96,7.93,6.83,8.27,1.33,.09,2.66,.04,3.99,.04,162.68,0,325.36,0,488.04,.02,11.98,0,23.63-1.84,34.76-6.23,25.05-9.87,44.11-25.94,53.91-51.87,14.39-38.06,29.06-76.01,43.69-113.98,4.95-12.85,7.16-26.06,5.7-39.79-2.42-22.8-12.9-40.6-33.25-51.75-10.26-5.62-20.78-10.87-31.52-15.5-42.46-18.32-85.06-36.32-127.59-54.46-6.66-2.84-13.35-5.63-19.9-8.73-10.22-4.84-13.55-13.07-9.76-23.68,.88-2.47,2.12-4.8,3.32-7.49Zm153.4,373.23c1.93,.11,2.85,.22,3.77,.22,44.54,0,89.08-.02,133.62,.08,2.57,0,3.47-.97,4.31-3.16,38.09-99.16,76.25-198.3,114.3-297.48,.57-1.49,.31-3.81-.48-5.23-5.92-10.53-11.98-20.99-18.19-31.36-5.4-9.01-10.85-18-16.65-26.76-3.64-5.5-9.09-8.76-15.78-9.13-7.48-.41-14.98-.53-22.47-.54-40.79-.05-81.58-.02-122.36-.02-1.56,0-3.13,0-4.71,0-1.31,3.32-2.58,6.44-3.78,9.59-5.93,15.57-12.23,31.02-17.66,46.76-5.01,14.53-1.46,22.6,11.74,30.2,10.98,6.32,20.95,13.92,29.21,23.6,17.57,20.6,25.42,44.27,19.92,71.03-2.9,14.12-7.78,27.9-12.61,41.53-11.78,33.23-24.14,66.26-36.08,99.44-2.9,8.06-6.76,15.48-12.11,22.13-9.28,11.52-20.62,20.67-33.98,29.1Z"/><path class="g" d="M846.35,20.22c254.3,0,508.6,0,762.9,0,26.8,0,45.98,19.13,45.98,45.88,0,28.32,0,56.64,0,84.97,0,26.54-19.4,45.76-46.22,45.76-191.97,0-383.93,0-575.9,0-316.51,0-633.03,0-949.54,0-22.89,0-40.85-14-45.4-35.55-.67-3.17-.95-6.48-.96-9.72-.07-28.69-.05-57.37-.04-86.06,0-25.72,19.52-45.27,45.19-45.27,254.66,0,509.33,0,763.99,0Z"/><path class="k" d="M846.28,865.62c254.54,0,509.08,0,763.63,0,26.05,0,45.31,19.3,45.31,45.4,0,28.56,0,57.13,0,85.69,0,25.95-19.47,45.4-45.44,45.4-509.08,0-1018.17,0-1527.25,0-25.85,0-45.37-19.58-45.37-45.52,0-28.56,0-57.13,0-85.69,0-22.52,14.77-40.49,36.84-44.67,2.71-.51,5.53-.58,8.3-.58,254.66-.03,509.33-.02,763.99-.02Zm125.53,101.01c-.1-.19-.43-.8-.74-1.42-7-13.91-13.97-27.83-21.03-41.71-.53-1.05-1.63-2.5-2.53-2.54-4.65-.26-9.33-.12-13.92-.12v65.76h14.46c-.47-15.17-.92-30.05-1.39-45.33,.35,.66,.56,1.03,.75,1.42,6.95,13.8,13.87,27.62,20.88,41.39,.54,1.07,1.58,2.61,2.47,2.66,4.66,.27,9.35,.13,14.04,.13v-65.85h-14.46c.5,15.41,1,30.61,1.49,45.6Zm-648.62-25.6c.28,.55,.75,1.51,1.23,2.46,6.84,13.59,13.66,27.18,20.57,40.74,.53,1.05,1.66,2.48,2.58,2.53,4.65,.26,9.33,.12,13.95,.12v-65.88h-14.54c.45,15.05,.89,29.91,1.34,45.16-.43-.8-.77-1.38-1.07-1.99-6.84-13.59-13.64-27.19-20.57-40.73-.56-1.09-1.9-2.43-2.96-2.5-4.43-.28-8.88-.12-13.43-.12v65.92h14.38c-.49-15.46-.98-30.76-1.46-45.72Zm1226.09-20.2v65.88h14.16c-.42-15.36-.83-30.51-1.24-45.54,.13,.23,.4,.61,.61,1.03,7.05,14.02,14.08,28.04,21.19,42.03,.53,1.04,1.64,2.48,2.54,2.54,4.55,.26,9.12,.12,13.83,.12v-65.76h-14.36c.44,15.22,.88,30.13,1.32,45.29-.34-.62-.58-1.02-.79-1.44-6.99-13.91-13.96-27.84-21.02-41.71-.51-1-1.72-2.27-2.67-2.32-4.44-.25-8.9-.11-13.57-.11Zm-271.26,31.64c-.26-2.07-.45-6.21-1.35-10.18-3.1-13.75-13.68-22.4-27.32-22.65-15.3-.29-26.05,7.53-29.82,21.81-1.82,6.88-1.92,13.85-.76,20.86,3.75,22.6,28.19,33.49,46.39,20.5,9.63-6.87,12.46-17.07,12.85-30.33Zm266.03,1.39c-.48-3.71-.69-7.47-1.48-11.11-2.99-13.72-13.1-22.41-26.59-23.11-14.89-.77-25.87,6.49-30.16,20.31-3.1,10-2.79,20.05,.9,29.89,8.41,22.38,37.29,22.58,48.78,8.98,6.11-7.23,8.13-15.75,8.55-24.97Zm-1070.43-.66c.5,3.9,.73,7.53,1.46,11.07,2.57,12.5,11.2,21.15,22.96,23.27,12.47,2.25,24.2-2.49,30.28-12.48,5.76-9.47,6.51-19.84,4.74-30.49-2.44-14.72-13.11-24.39-27.32-24.93-15.5-.59-26.59,7.33-30.36,22-.98,3.83-1.21,7.85-1.75,11.56Zm-106.68,.09c.7,4.44,1.02,8.82,2.12,12.98,3.46,13.04,13.75,21.35,26.29,21.61,15.27,.31,25.33-6.49,29.84-20.27,2.62-8.01,2.72-16.21,1.03-24.37-2.94-14.15-13.25-23.06-26.94-23.6-14.98-.59-26.05,6.81-30.03,20.51-1.24,4.25-1.57,8.76-2.31,13.14Zm-79.23,6.3v26.99h14.79v-65.54h-14.99v25.04h-22.41v-25.05h-14.82v65.64h14.91v-27.08h22.52Zm541.59,26.66c9.18,0,18.07,.81,26.74-.19,12.17-1.4,20.22-8.67,23.39-20.71,1.9-7.23,1.95-14.57,.37-21.9-2.49-11.58-9.55-18.71-21.04-21.35-3.04-.7-6.2-1.1-9.32-1.18-6.71-.17-13.42-.05-20.14-.05v65.39Zm-238.41-57.95c-1.12-1-1.97-1.85-2.91-2.57-11.29-8.72-28.52-8.05-39.15,1.62-9.19,8.36-11.68,19.14-10.71,31.02,.99,12.07,6.02,21.81,17.59,26.65,11.91,4.99,23.63,4.22,34.42-3.48,.85-.61,1.72-1.88,1.73-2.85,.13-9.55,.08-19.1,.08-28.84h-23.88v11.96h10.7c0,3.18-.18,5.96,.05,8.71,.2,2.32-.87,3.34-2.85,3.87-6.13,1.63-16.51,.62-20.41-8.83-3.13-7.6-3.27-15.36-.06-22.94,3.35-7.93,11.72-11.87,19.71-9.29,2.78,.9,5.27,2.71,8.08,4.21,2.37-2.87,4.82-5.85,7.6-9.23Zm217.64-7.3c0,12.69,.05,25.01-.04,37.33-.02,2.76-.26,5.57-.86,8.26-1.22,5.51-5.24,8.55-10.65,8.47-5.37-.08-9.04-2.98-10.26-8.46-.55-2.46-.79-5.02-.81-7.54-.08-11.49-.04-22.98-.04-34.47v-3.51h-15.06c0,13.65-.29,27.07,.11,40.46,.23,7.69,1.97,15.31,8.31,20.59,8.56,7.12,18.54,7.21,28.5,4.1,9.23-2.89,13.5-10.43,14.42-19.52,.83-8.27,.7-16.64,.85-24.98,.12-6.86,.02-13.72,.02-20.73h-14.49Zm608.1,65.83c.09-.38,.16-.51,.13-.61-6.58-21.19-13.13-42.38-19.83-63.53-.26-.83-1.83-1.73-2.83-1.77-4.22-.2-8.46,.06-12.68-.14-2.4-.11-3.27,.8-3.96,3.02-6.17,20.06-12.48,40.07-18.73,60.1-.27,.88-.4,1.8-.67,3,3.61,0,6.89-.28,10.11,.07,3.83,.43,5.62-.8,6.21-4.74,.56-3.74,1.89-7.37,2.89-11.06,5.95,0,11.51,.13,17.05-.06,2.36-.08,3.13,.92,3.6,2.94,1,4.3,2.18,8.56,3.27,12.78h15.44Zm-346.12-.11c1.16-4.42,2.22-8.88,3.57-13.25,.29-.93,1.6-2.17,2.48-2.2,5.91-.19,11.82-.1,17.88-.1,1.22,4.6,2.33,9.04,3.61,13.44,.25,.85,1.12,2.15,1.74,2.17,4.75,.18,9.5,.1,14.69,.1-6.84-21.91-13.46-43.19-20.2-64.44-.23-.71-1.53-1.52-2.35-1.54-5.3-.14-10.61-.07-16.1-.07-6.88,21.98-13.71,43.8-20.62,65.89h15.3Zm-921.27,.02h41.93v-12.71h-26.78v-15.1h21.92v-12.44h-21.92v-13.16h25.86v-12.25h-41.01v65.66Zm752.12-53.48h25.94v-12.43c-6.95,0-13.71,0-20.46,0s-13.69,0-20.44,0v65.88h41.72v-12.61h-26.71v-15.07h21.87v-12.58h-21.92v-13.18Zm311.52-4.86c-7.08-6.77-15.3-9.59-24.68-8.51-3.39,.39-6.88,1.51-9.93,3.07-6.51,3.33-10.12,8.85-10.2,16.31-.09,7.51,3.55,13.03,10.03,16.41,5.23,2.73,10.79,4.83,16.19,7.23,3.05,1.35,5.65,3.12,4.84,7.05-.75,3.62-3.63,4.51-6.8,4.88-7.16,.85-12.83-2.51-18.45-6.68-2.83,3.42-5.63,6.81-8.41,10.17,9.45,9.25,25.2,12.25,36.76,7.25,4.84-2.09,8.63-5.31,10.8-10.2,4.54-10.24,.51-20.49-10.01-25.23-5.39-2.43-11.02-4.36-16.26-7.06-1.64-.85-3.38-3.63-3.18-5.3,.2-1.7,2.48-3.84,4.31-4.5,2.23-.81,5.1-.82,7.43-.19,3.43,.92,6.62,2.7,10.27,4.27,2.14-2.64,4.56-5.62,7.29-8.98Zm-97.64,49.89c10.5,10.6,29.45,12.6,40.87,5.1,10.42-6.85,12.54-25.71-2-32.57-2.29-1.08-4.66-2-6.98-3.01-3.65-1.58-7.49-2.86-10.87-4.89-1.53-.93-3.19-3.56-2.92-5.08,.32-1.76,2.43-3.81,4.25-4.56,3.99-1.65,8.09-.65,11.88,1.25,1.9,.95,3.71,2.07,5.64,3.16,2.55-3.16,4.96-6.15,7.53-9.35-8.43-7.7-18.01-10.43-28.9-7.73-9.36,2.32-15.47,9.26-15.95,17.51-.51,8.75,4.09,15.3,13.53,19.32,4.33,1.84,8.67,3.67,12.98,5.59,2.93,1.31,5.35,3.15,4.62,6.86-.67,3.38-3.27,4.51-6.37,4.93-7.3,.99-13.1-2.3-18.87-6.64-2.77,3.32-5.53,6.63-8.45,10.12Zm-444.04-10.12c-2.87,3.47-5.61,6.79-8.32,10.08,9.59,10.45,29.19,12.73,40.65,5.24,11.02-7.21,12.34-26.23-2.04-32.73-1.76-.8-3.55-1.52-5.32-2.29-4.3-1.89-8.74-3.56-12.83-5.83-1.36-.75-2.72-3.18-2.52-4.63,.23-1.66,1.92-3.95,3.46-4.43,2.64-.82,5.79-1.04,8.47-.41,3.43,.8,6.61,2.69,10.15,4.22,2.27-2.83,4.73-5.88,7.15-8.9-7.24-7.5-18.68-10.62-28.63-7.99-9.25,2.45-15.4,9.13-16.07,17.46-.69,8.55,4.07,15.44,13.4,19.42,4.44,1.9,8.9,3.75,13.31,5.72,2.81,1.26,5.04,3.12,4.44,6.64-.59,3.42-3.17,4.59-6.26,5.05-7.31,1.07-13.11-2.24-19.03-6.62Zm662.24-40.26c-.93-.61-1.69-1.01-2.33-1.55-14.13-11.91-35.72-7.54-44.61,9.01-3.6,6.69-4.69,13.88-4.43,21.37,.68,19.55,13.89,32,33.26,31.08,7.59-.36,13.83-3.65,18.75-9.7-2.75-3.21-5.32-6.22-7.79-9.1-2.12,1.53-3.84,3.07-5.82,4.16-7.08,3.88-15.3,1.66-19.62-5.15-4.81-7.58-4.43-21.72,.77-29.04,4.73-6.66,12.92-8.3,19.82-3.94,1.28,.81,2.49,1.75,3.84,2.7,2.61-3.15,5.07-6.12,8.17-9.84Zm-1088.67,.41c-1.25-1.11-2.33-2.24-3.57-3.15-11.75-8.61-28.22-7.07-38.25,3.64-8.24,8.8-10,19.57-8.93,31.04,1.74,18.56,16.58,30.36,34.99,27.83,6.69-.92,12.27-4.02,16.73-9.48-2.67-3.17-5.22-6.2-7.75-9.21-1.67,1.26-3.14,2.54-4.76,3.57-7.99,5.05-17.91,2.34-21.64-6.3-3.61-8.36-3.68-16.97,.5-25.24,4.35-8.61,13.87-10.91,21.76-5.48,.98,.67,1.91,1.41,3.03,2.24,2.65-3.18,5.17-6.21,7.88-9.46Zm375.98,22.18c-3.62-9.46-6.99-18.37-10.51-27.23-.39-.99-1.61-2.29-2.51-2.34-4.66-.23-9.34-.11-14.39-.11,.54,1.27,.89,2.16,1.29,3.01,5.59,11.91,11.27,23.78,16.69,35.76,1.1,2.43,1.65,5.27,1.75,7.95,.25,6.35,.08,12.72,.08,19.13h15.12c0-6.6-.17-13,.08-19.38,.11-2.68,.67-5.51,1.77-7.94,5.42-11.98,11.1-23.86,16.67-35.77,.38-.8,.65-1.65,1.08-2.76-1.73,0-3.05-.02-4.37,0-3.62,.06-8.15-1.16-10.6,.57-2.58,1.82-3.25,6.44-4.63,9.89-2.5,6.24-4.91,12.51-7.53,19.22Zm-477.74-29.48h-51.14v12.41h18.12v53.22h15.08v-53.41h17.94v-12.22Zm898.19,0h-50.9v12.45h18.04v53.2h15.09v-53.32h17.77v-12.33Zm366.44,12.45h17.77v53.19h15.27v-53.49h17.61v-12.16h-50.64v12.46Zm-660.69,53.22v-53.34h17.68v-12.27h-50.52v12.44h17.9v53.17h14.95Zm-299.06-12.66v-53.06h-14.8v65.66h40.56v-12.6h-25.76Zm1015.73,12.74h14.93v-66.33h-14.93v66.33Zm-124.82-66.45v66.47h14.84v-66.47h-14.84Z"/><path class="l" d="M1263.44,953.79c-1.43,4.95-2.08,10-4.27,14.26-4.86,9.44-17.11,9.61-22.2,.28-5.1-9.36-5.24-19.39-.25-28.87,4.95-9.4,17.68-9.39,22.56,.05,2.2,4.24,2.77,9.33,4.16,14.29Z"/><path class="l" d="M1529.09,954.21c-1.28,4.52-2.16,9.29-3.98,13.65-1.97,4.71-6.13,7.18-11.29,7.18-5.31,0-9.32-2.64-11.55-7.42-4.15-8.9-4.29-18.03-.43-27.05,2.18-5.1,6.27-7.96,11.94-7.97,5.83,0,10.07,2.95,12.07,8.26,1.55,4.11,2.13,8.58,3.25,13.35Z"/><path class="l" d="M488.51,953.17c1.31-4.58,1.94-9.51,4.07-13.68,4.73-9.25,17.43-9.49,22.38-.36,5.31,9.79,5.14,20.17-.44,29.82-4.86,8.39-15.99,8.2-21.39,.08-3.14-4.73-3.83-10.09-4.62-15.86Z"/><path class="i" d="M412.49,953.43c-.62,5.68-1.41,11.01-4.54,15.71-5.34,8.03-16.57,8.14-21.35-.22-5.43-9.5-5.46-19.63-.66-29.47,2.36-4.85,6.73-7.13,12.2-6.82,5.51,.32,9.4,3.34,11.29,8.29,1.52,3.98,2.08,8.32,3.06,12.5Z"/><path class="h" d="M844.21,974.37v-40.73c11.37-2.36,19.61,3.45,20.81,14.76,.34,3.21,.38,6.52,.06,9.73-1.18,11.86-8.69,17.69-20.87,16.24Z"/><path class="j" d="M1393.96,959.29h-13.57c2.17-8.8,4.3-17.48,6.68-27.17,2.43,9.58,4.63,18.27,6.88,27.17Z"/><path class="j" d="M1084.77,933.12c2.17,8.63,4.33,17.27,6.56,26.13h-13.55c2.18-8.79,4.31-17.4,6.44-26.01l.55-.12Z"/></g></g><g id="d"><text class="f" transform="translate(488.28 134.97)"><tspan x="0" y="0">PENNSY</tspan><tspan class="o" x="377.69" y="0">LV</tspan><tspan x="481.42" y="0">ANI</tspan><tspan class="m" x="639.6" y="0">A</tspan></text></g></svg>